<svg xmlns="http://www.w3.org/2000/svg" xmlns:xlink="http://www.w3.org/1999/xlink" width="500" zoomAndPan="magnify" viewBox="0 0 375 374.999991" height="500" preserveAspectRatio="xMidYMid meet" version="1.0"><defs><g/><clipPath id="684fb135e1"><path d="M 144 95.652344 L 240.609375 95.652344 L 240.609375 138 L 144 138 Z M 144 95.652344 " clip-rule="nonzero"/></clipPath><clipPath id="81a975c15c"><path d="M 134.109375 137 L 231 137 L 231 178.902344 L 134.109375 178.902344 Z M 134.109375 137 " clip-rule="nonzero"/></clipPath></defs><g clip-path="url(#684fb135e1)"><path fill="#00adef" d="M 144.003906 137.273438 L 159.992188 137.273438 L 172.582031 121.261719 L 156.59375 121.261719 Z M 224.613281 95.648438 L 191.152344 137.273438 L 207.140625 137.273438 L 240.601562 95.648438 Z M 192.574219 106.105469 L 167.578125 137.273438 L 183.566406 137.273438 L 208.5625 106.105469 L 192.574219 106.105469 " fill-opacity="1" fill-rule="nonzero"/></g><g clip-path="url(#81a975c15c)"><path fill="#4f4c4c" d="M 230.714844 137.273438 L 214.726562 137.273438 L 202.136719 153.28125 L 218.125 153.28125 Z M 150.105469 178.894531 L 183.566406 137.273438 L 167.578125 137.273438 L 134.113281 178.894531 Z M 182.144531 168.4375 L 207.140625 137.273438 L 191.152344 137.273438 L 166.152344 168.4375 L 182.144531 168.4375 " fill-opacity="1" fill-rule="nonzero"/></g><g fill="#00adef" fill-opacity="1"><g transform="translate(133.434641, 223.813593)"><g><path d="M 21.75 -34.03125 L 21.75 -12.1875 C 21.75 -10.78125 21.660156 -9.425781 21.484375 -8.125 C 21.304688 -6.832031 20.785156 -5.582031 19.921875 -4.375 C 18.828125 -2.800781 17.488281 -1.617188 15.90625 -0.828125 C 14.320312 -0.046875 12.617188 0.34375 10.796875 0.34375 C 9.546875 0.34375 8.367188 0.132812 7.265625 -0.28125 C 6.160156 -0.695312 5.148438 -1.265625 4.234375 -1.984375 C 3.328125 -2.710938 2.535156 -3.5625 1.859375 -4.53125 C 1.191406 -5.507812 0.6875 -6.5625 0.34375 -7.6875 L 6.625 -9.796875 C 6.882812 -8.867188 7.375 -8.097656 8.09375 -7.484375 C 8.8125 -6.878906 9.648438 -6.578125 10.609375 -6.578125 C 11.722656 -6.578125 12.59375 -6.953125 13.21875 -7.703125 C 13.84375 -8.453125 14.238281 -9.304688 14.40625 -10.265625 C 14.40625 -10.398438 14.410156 -10.847656 14.421875 -11.609375 C 14.441406 -12.378906 14.453125 -13.332031 14.453125 -14.46875 C 14.453125 -15.601562 14.453125 -16.882812 14.453125 -18.3125 C 14.453125 -19.738281 14.453125 -21.171875 14.453125 -22.609375 C 14.453125 -26.003906 14.4375 -29.8125 14.40625 -34.03125 Z M 21.75 -34.03125 "/></g></g></g><g fill="#00adef" fill-opacity="1"><g transform="translate(156.3786, 223.813593)"><g><path d="M 21.75 -34.03125 L 21.75 -12.1875 C 21.75 -10.78125 21.660156 -9.425781 21.484375 -8.125 C 21.304688 -6.832031 20.785156 -5.582031 19.921875 -4.375 C 18.828125 -2.800781 17.488281 -1.617188 15.90625 -0.828125 C 14.320312 -0.046875 12.617188 0.34375 10.796875 0.34375 C 9.546875 0.34375 8.367188 0.132812 7.265625 -0.28125 C 6.160156 -0.695312 5.148438 -1.265625 4.234375 -1.984375 C 3.328125 -2.710938 2.535156 -3.5625 1.859375 -4.53125 C 1.191406 -5.507812 0.6875 -6.5625 0.34375 -7.6875 L 6.625 -9.796875 C 6.882812 -8.867188 7.375 -8.097656 8.09375 -7.484375 C 8.8125 -6.878906 9.648438 -6.578125 10.609375 -6.578125 C 11.722656 -6.578125 12.59375 -6.953125 13.21875 -7.703125 C 13.84375 -8.453125 14.238281 -9.304688 14.40625 -10.265625 C 14.40625 -10.398438 14.410156 -10.847656 14.421875 -11.609375 C 14.441406 -12.378906 14.453125 -13.332031 14.453125 -14.46875 C 14.453125 -15.601562 14.453125 -16.882812 14.453125 -18.3125 C 14.453125 -19.738281 14.453125 -21.171875 14.453125 -22.609375 C 14.453125 -26.003906 14.4375 -29.8125 14.40625 -34.03125 Z M 21.75 -34.03125 "/></g></g></g><g fill="#00adef" fill-opacity="1"><g transform="translate(179.32256, 223.813593)"><g><path d="M 16.9375 -34.03125 C 18.28125 -34.03125 19.546875 -33.765625 20.734375 -33.234375 C 21.921875 -32.710938 22.953125 -31.992188 23.828125 -31.078125 C 24.710938 -30.171875 25.410156 -29.097656 25.921875 -27.859375 C 26.429688 -26.628906 26.6875 -25.3125 26.6875 -23.90625 C 26.6875 -22.5 26.429688 -21.175781 25.921875 -19.9375 C 25.410156 -18.707031 24.710938 -17.628906 23.828125 -16.703125 C 22.953125 -15.773438 21.921875 -15.046875 20.734375 -14.515625 C 19.546875 -13.992188 18.28125 -13.734375 16.9375 -13.734375 L 9.5 -13.734375 L 9.5 0 L 2.25 0 L 2.25 -34.03125 Z M 15.984375 -20.359375 C 16.910156 -20.359375 17.71875 -20.703125 18.40625 -21.390625 C 19.09375 -22.078125 19.4375 -22.914062 19.4375 -23.90625 C 19.4375 -24.863281 19.09375 -25.6875 18.40625 -26.375 C 17.71875 -27.0625 16.910156 -27.40625 15.984375 -27.40625 L 9.5 -27.40625 L 9.5 -20.359375 Z M 15.984375 -20.359375 "/></g></g></g><g fill="#00adef" fill-opacity="1"><g transform="translate(205.62652, 223.813593)"><g><path d="M 32.0625 -34.03125 L 38.921875 -34.03125 L 38.921875 0 L 31.6875 0 L 31.6875 -22.46875 L 23.5625 -11.09375 L 17.765625 -11.09375 L 9.546875 -22.125 L 9.546875 0 L 2.25 0 L 2.25 -34.03125 L 9.171875 -34.03125 L 20.6875 -18.34375 Z M 32.0625 -34.03125 "/></g></g></g><g fill="#4f4c4c" fill-opacity="1"><g transform="translate(138.919008, 265.159435)"><g><path d="M 18.28125 -6.625 C 19.820312 -6.625 21.328125 -6.972656 22.796875 -7.671875 C 24.273438 -8.378906 25.765625 -9.566406 27.265625 -11.234375 L 31.96875 -6.765625 C 30.082031 -4.335938 27.929688 -2.5 25.515625 -1.25 C 23.097656 0 20.609375 0.625 18.046875 0.625 C 15.742188 0.625 13.582031 0.15625 11.5625 -0.78125 C 9.550781 -1.726562 7.800781 -3.003906 6.3125 -4.609375 C 4.820312 -6.210938 3.648438 -8.078125 2.796875 -10.203125 C 1.953125 -12.328125 1.53125 -14.585938 1.53125 -16.984375 C 1.53125 -19.390625 1.96875 -21.644531 2.84375 -23.75 C 3.726562 -25.863281 4.921875 -27.722656 6.421875 -29.328125 C 7.929688 -30.929688 9.707031 -32.195312 11.75 -33.125 C 13.800781 -34.050781 15.976562 -34.515625 18.28125 -34.515625 C 20.425781 -34.515625 22.46875 -34.113281 24.40625 -33.3125 C 26.34375 -32.507812 28.238281 -31.179688 30.09375 -29.328125 L 25.875 -24.1875 C 24.53125 -25.4375 23.253906 -26.273438 22.046875 -26.703125 C 20.847656 -27.140625 19.59375 -27.359375 18.28125 -27.359375 C 16.96875 -27.359375 15.726562 -27.085938 14.5625 -26.546875 C 13.394531 -26.003906 12.378906 -25.265625 11.515625 -24.328125 C 10.648438 -23.398438 9.96875 -22.304688 9.46875 -21.046875 C 8.976562 -19.785156 8.734375 -18.429688 8.734375 -16.984375 C 8.734375 -15.546875 8.976562 -14.203125 9.46875 -12.953125 C 9.96875 -11.710938 10.648438 -10.617188 11.515625 -9.671875 C 12.378906 -8.722656 13.394531 -7.976562 14.5625 -7.4375 C 15.726562 -6.894531 16.96875 -6.625 18.28125 -6.625 Z M 18.28125 -6.625 "/></g></g></g><g fill="#4f4c4c" fill-opacity="1"><g transform="translate(171.318947, 265.159435)"><g><path d="M 16.9375 -34.03125 C 18.28125 -34.03125 19.546875 -33.765625 20.734375 -33.234375 C 21.921875 -32.710938 22.953125 -31.992188 23.828125 -31.078125 C 24.710938 -30.171875 25.410156 -29.097656 25.921875 -27.859375 C 26.429688 -26.628906 26.6875 -25.3125 26.6875 -23.90625 C 26.6875 -22.5 26.429688 -21.175781 25.921875 -19.9375 C 25.410156 -18.707031 24.710938 -17.628906 23.828125 -16.703125 C 22.953125 -15.773438 21.921875 -15.046875 20.734375 -14.515625 C 19.546875 -13.992188 18.28125 -13.734375 16.9375 -13.734375 L 9.5 -13.734375 L 9.5 0 L 2.25 0 L 2.25 -34.03125 Z M 15.984375 -20.359375 C 16.910156 -20.359375 17.71875 -20.703125 18.40625 -21.390625 C 19.09375 -22.078125 19.4375 -22.914062 19.4375 -23.90625 C 19.4375 -24.863281 19.09375 -25.6875 18.40625 -26.375 C 17.71875 -27.0625 16.910156 -27.40625 15.984375 -27.40625 L 9.5 -27.40625 L 9.5 -20.359375 Z M 15.984375 -20.359375 "/></g></g></g><g fill="#4f4c4c" fill-opacity="1"><g transform="translate(197.622904, 265.159435)"><g><path d="M 23.1875 -34.03125 L 37.390625 0 L 29.515625 0 L 26.453125 -7.296875 L 12 -7.296875 L 8.96875 0 L 1.0625 0 L 15.265625 -34.03125 Z M 23.71875 -13.921875 L 19.25 -24.625 L 14.78125 -13.921875 Z M 23.71875 -13.921875 "/></g></g></g></svg>