<svg xmlns="http://www.w3.org/2000/svg" xmlns:xlink="http://www.w3.org/1999/xlink" width="500" zoomAndPan="magnify" viewBox="0 0 375 374.999991" height="500" preserveAspectRatio="xMidYMid meet" version="1.0"><defs><clipPath id="813567f2b8"><path d="M 126 128.929688 L 262.921875 128.929688 L 262.921875 188 L 126 188 Z M 126 128.929688 " clip-rule="nonzero"/></clipPath><clipPath id="fe94950985"><path d="M 112.171875 187 L 249 187 L 249 245.929688 L 112.171875 245.929688 Z M 112.171875 187 " clip-rule="nonzero"/></clipPath></defs><g clip-path="url(#813567f2b8)"><path fill="#00adef" d="M 126.164062 187.488281 L 148.785156 187.488281 L 166.59375 164.964844 L 143.976562 164.964844 Z M 240.199219 128.925781 L 192.863281 187.488281 L 215.484375 187.488281 L 262.820312 128.925781 Z M 194.875 143.640625 L 159.515625 187.488281 L 182.132812 187.488281 L 217.496094 143.640625 L 194.875 143.640625 " fill-opacity="1" fill-rule="nonzero"/></g><g clip-path="url(#fe94950985)"><path fill="#f6f6f6" d="M 248.832031 187.488281 L 226.210938 187.488281 L 208.402344 210.015625 L 231.023438 210.015625 Z M 134.796875 246.050781 L 182.132812 187.488281 L 159.511719 187.488281 L 112.175781 246.050781 Z M 180.121094 231.339844 L 215.484375 187.488281 L 192.863281 187.488281 L 157.5 231.339844 L 180.121094 231.339844 " fill-opacity="1" fill-rule="nonzero"/></g></svg>